<?xml version="1.0" encoding="UTF-8" standalone="no"?>
<svg
   viewBox="0 0 19.429587 21.104119"
   version="1.1"
   id="svg1"
   width="19.429588"
   height="21.104118"
   xmlns="http://www.w3.org/2000/svg"
   xmlns:svg="http://www.w3.org/2000/svg">
  <defs
     id="defs1" />
  <g
     id="upstairs-logo"
     transform="translate(-0.62556704,-0.56403252)">
    <path
       d="m 15.909151,8.220558 c -0.66014,-0.05892 -1.502582,-0.01895 -2.915104,0.08429 -1.755311,0.128305 -4.4583059,0.4910553 -6.0023855,0.8067113 -1.5440782,0.315663 -3.5113922,0.835167 -4.3730725,1.1532087 -1.5515281,0.572659 -1.5561751,0.58334 -0.3745634,1.159528 0.8777288,0.428007 2.7604163,0.682471 7.1170057,0.960699 5.4923487,0.351069 6.0624577,0.324307 7.8587837,-0.359175 1.339515,-0.509676 1.956856,-1.029991 1.997798,-1.688867 C 19.258643,9.6767453 18.798439,9.1824973 17.727266,8.7278073 17.043129,8.437411 16.569304,8.279486 15.909151,8.22056 Z"
       style="fill:currentColor;stroke-width:0.337717"
       id="path6" />
    <path
       d="m 17.207897,15.968137 c -0.567864,-0.144244 -1.709183,-0.253353 -2.536258,-0.241207 -0.827065,0.01215 -1.842114,0.06199 -2.254782,0.110397 -0.412675,0.04839 -1.25994,0.160718 -1.882973,0.249175 -0.6230426,0.08846 -2.383886,0.254257 -3.9146772,0.369886 -1.5307914,0.11563 -3.326903,0.412338 -3.9901403,0.659037 -0.6632319,0.246711 -1.3607454,0.581062 -1.5489773,0.743087 -0.18823196,0.162026 -0.38925616,0.473627 -0.44789406,0.69229 -0.058636,0.218654 0.2783967,0.655776 0.74857826,0.972025 0.470245,0.316048 2.1036996,0.819697 3.6295833,1.117422 1.5258953,0.297727 3.8601784,0.579831 5.1889773,0.626858 1.328799,0.04703 2.867555,0.20042 3.417925,0.34022 0.550372,0.1398 1.855568,0.03018 2.900941,-0.242493 1.04536,-0.272662 2.115123,-0.69777 2.377772,-0.943655 0.262649,-0.245886 0.658475,-0.750049 0.879161,-1.120789 0.220717,-0.370741 0.334985,-0.885032 0.253948,-1.142569 -0.08103,-0.257545 -0.516128,-0.795117 -0.96753,-1.196914 -0.451403,-0.401803 -1.285791,-0.848527 -1.853657,-0.992771 z"
       style="fill:currentColor;stroke-width:0.264583"
       id="path7" />
    <path
       d="m 16.111774,0.71875065 c -0.49385,-0.1011472 -1.483876,-0.1698601 -2.200346,-0.1518486 -0.716458,0.0180133 -1.595366,0.0657638 -1.952313,0.1062534 -0.356953,0.040479 -1.089041,0.1337762 -1.627751,0.2063439 C 9.7926434,0.95207385 8.2686867,1.0934017 6.9437897,1.1960353 5.6188946,1.2986704 4.0653201,1.5387685 3.4937738,1.7294962 2.9222334,1.9202346 2.3241555,2.176654 2.1631079,2.2992352 2.0020624,2.4218168 1.8317949,2.6558518 1.7837503,2.8191617 c -0.048042,0.1633042 0.2488486,0.4858718 0.660237,0.7160419 0.4114379,0.2300204 1.8324079,0.5857278 3.1582776,0.7906605 1.3258769,0.2049391 3.3517148,0.3901265 4.5036491,0.4106927 1.151936,0.020566 2.487136,0.1172087 2.965773,0.2152399 0.478638,0.098032 1.607526,0.00363 2.509845,-0.21057 0.90231,-0.2141908 1.824691,-0.5430878 2.049157,-0.7288645 C 17.855154,3.8265855 18.191508,3.4482164 18.378035,3.1700114 18.564588,2.8918021 18.657846,2.5084205 18.584376,2.3177046 18.510917,2.1269845 18.126846,1.7309229 17.73065,1.4369066 17.334452,1.1428841 16.605631,0.81989905 16.111779,0.71875145 Z"
       style="fill:currentColor;stroke-width:0.212448"
       id="path5" />
  </g>
</svg>
